# xmcd
#
# Track frame offsets: 
#        150
#        13722
#        31327
#        44412
#        59408
#        72740
#        84421
#        96246
#        110035
#        138479
#        151484
#
# Disc length: 2248 seconds
#
# Revision: 0
# Processed by: cddbd v1.5.2PL0 Copyright (c) Steve Scherf et al.
# Submitted via: ExactAudioCopy v1.3
#
DISCID=9b08c60b
DTITLE=Heidi Andresen and Band - No Name
DYEAR=2014
DGENRE=Blues
TTITLE0=I'm Done
TTITLE1=No Name
TTITLE2=Our Own
TTITLE3=Feil Fly på radar'n
TTITLE4=Kan'ke være nær
TTITLE5=Roadkill
TTITLE6=One Note Song
TTITLE7=Wasted Man
TTITLE8=Good Man
TTITLE9=Roman Nighte
TTITLE10=Nothing To Offer
EXTD=
EXTT0=
EXTT1=
EXTT2=
EXTT3=
EXTT4=
EXTT5=
EXTT6=
EXTT7=
EXTT8=
EXTT9=
EXTT10=
PLAYORDER=
